<?xml version="1.0" standalone="no"?>
<!DOCTYPE svg PUBLIC "-//W3C//DTD SVG 20010904//EN"
 "http://www.w3.org/TR/2001/REC-SVG-20010904/DTD/svg10.dtd">
<svg version="1.0" xmlns="http://www.w3.org/2000/svg"
 width="2068.000000pt" height="2068.000000pt" viewBox="0 0 2068.000000 2068.000000"
 preserveAspectRatio="xMidYMid meet">
<metadata>
Created by potrace 1.11, written by Peter Selinger 2001-2013
</metadata>
<g transform="translate(0.000000,2068.000000) scale(0.100000,-0.100000)"
fill="#000000" stroke="none">
<path d="M10352 20664 c-5 -11 -22 -48 -37 -84 -67 -161 -303 -716 -325 -765
-5 -11 -44 -101 -86 -200 -42 -99 -81 -191 -87 -205 -5 -14 -11 -27 -12 -30
-4 -11 -443 -1045 -470 -1105 -7 -16 -43 -102 -80 -190 -37 -88 -76 -178 -86
-200 -10 -22 -102 -238 -204 -480 -103 -242 -199 -469 -215 -505 -15 -36 -85
-200 -155 -365 -70 -165 -133 -313 -140 -330 -8 -16 -46 -106 -85 -200 -39
-93 -75 -177 -79 -186 -5 -8 -36 -82 -70 -163 -34 -81 -70 -166 -80 -189 -11
-23 -90 -208 -176 -412 -185 -435 -181 -426 -199 -467 -8 -18 -59 -139 -114
-268 -55 -129 -121 -284 -147 -345 -25 -60 -55 -129 -66 -152 -10 -24 -19 -45
-19 -48 0 -2 -13 -34 -30 -70 -16 -36 -30 -68 -30 -71 0 -3 -8 -24 -19 -47
-10 -23 -89 -208 -175 -412 -86 -203 -163 -383 -170 -400 -8 -16 -21 -46 -29
-65 -8 -19 -40 -93 -70 -165 -221 -517 -392 -920 -634 -1490 -63 -148 -127
-299 -143 -335 -15 -36 -105 -247 -200 -470 -166 -393 -180 -425 -213 -500 -9
-19 -93 -217 -187 -440 -448 -1056 -513 -1209 -536 -1258 -13 -29 -24 -55 -24
-58 0 -3 -12 -31 -26 -62 -14 -31 -30 -67 -35 -79 -10 -26 -343 -813 -364
-858 -7 -16 -52 -122 -100 -235 -199 -468 -318 -747 -336 -787 -10 -23 -19
-44 -19 -46 0 -3 -10 -26 -22 -53 -12 -27 -23 -51 -23 -54 -1 -3 -9 -23 -19
-45 -9 -22 -40 -94 -68 -160 -28 -66 -59 -138 -69 -160 -9 -22 -68 -159 -129
-305 -113 -266 -143 -338 -160 -375 -5 -11 -55 -128 -111 -260 -123 -292 -157
-371 -174 -410 -7 -16 -90 -212 -185 -435 -158 -371 -195 -458 -220 -515 -5
-11 -61 -144 -125 -295 -64 -151 -123 -288 -130 -305 -8 -16 -32 -75 -55 -130
-23 -55 -52 -124 -66 -153 -13 -29 -24 -55 -24 -59 0 -3 -15 -40 -34 -82 -19
-42 -84 -195 -146 -341 -62 -146 -146 -344 -187 -440 -92 -215 -96 -224 -98
-230 -1 -3 -7 -16 -13 -30 -6 -14 -77 -180 -157 -370 -80 -190 -152 -358 -160
-375 -8 -16 -43 -100 -79 -185 l-65 -155 4951 -3 c2723 -1 4953 0 4956 2 2 3
-10 62 -27 133 -32 131 -39 163 -41 175 -1 4 -8 31 -16 60 -9 28 -17 59 -19
67 -2 9 -22 93 -45 186 -23 94 -43 177 -45 185 -2 8 -27 107 -55 220 -29 113
-54 214 -56 225 -3 18 -29 122 -179 725 -25 102 -48 194 -50 205 -3 11 -8 34
-12 50 -4 17 -7 32 -8 35 0 3 -6 25 -13 50 -11 41 -145 584 -157 634 -3 12 -9
39 -14 61 -7 33 -50 207 -78 315 -3 14 -7 30 -9 35 -1 6 -7 30 -14 55 -6 25
-17 70 -24 100 -7 30 -41 170 -76 312 l-64 256 -1450 1 c-798 0 -1459 0 -1468
0 -16 1 -15 7 8 59 14 31 37 86 50 122 14 36 29 74 34 85 5 11 21 49 36 85 14
36 32 79 39 95 8 17 46 109 85 205 39 96 83 202 97 235 14 33 34 83 45 110 12
28 27 64 33 80 7 17 27 66 45 110 18 44 38 94 45 110 7 17 39 93 70 170 31 77
62 154 70 170 7 17 39 93 70 170 31 77 63 154 70 170 7 17 34 82 60 145 26 63
52 126 58 140 6 14 11 27 12 30 1 3 7 19 14 35 7 17 37 91 68 165 31 74 77
187 104 250 26 63 116 282 199 485 84 204 157 381 163 395 5 14 11 30 13 35 4
12 371 902 384 930 5 11 30 72 56 135 25 63 52 129 59 145 7 17 43 104 80 195
37 91 73 179 80 195 8 17 35 82 60 145 25 63 55 134 66 157 10 24 19 49 19 56
0 7 4 17 8 23 5 5 16 27 25 49 32 81 138 341 147 360 5 11 26 61 46 110 20 50
44 108 54 130 9 22 73 176 141 342 l123 302 14 -32 c17 -39 168 -408 247 -602
31 -77 63 -153 70 -170 7 -16 34 -82 60 -145 26 -63 53 -128 60 -145 7 -16 31
-75 53 -130 101 -249 257 -625 277 -670 8 -17 19 -43 25 -59 9 -26 124 -300
155 -371 7 -16 30 -70 50 -120 21 -49 46 -108 56 -130 43 -98 160 -382 319
-780 95 -236 178 -443 185 -460 12 -26 275 -682 335 -835 26 -64 30 -74 64
-155 14 -33 80 -197 146 -365 208 -519 541 -1344 560 -1385 8 -16 183 -442
210 -510 4 -11 8 -23 9 -28 0 -4 7 -20 15 -35 8 -15 69 -160 136 -322 66 -162
127 -308 135 -325 7 -16 23 -55 35 -85 12 -30 28 -70 36 -87 30 -70 43 -101
79 -188 20 -49 42 -103 49 -120 8 -16 82 -194 166 -395 222 -531 510 -1216
550 -1305 10 -22 71 -164 135 -315 65 -151 128 -297 140 -325 12 -27 38 -86
58 -130 19 -44 56 -128 83 -187 l47 -108 2094 0 c1151 0 2093 3 2093 7 0 4
-69 169 -154 368 -85 198 -218 511 -296 695 -78 184 -155 364 -170 400 -15 36
-99 232 -185 435 -86 204 -180 426 -210 495 -29 69 -104 244 -165 390 -62 146
-119 281 -127 300 -33 76 -45 105 -163 385 -67 160 -166 394 -220 520 -54 127
-135 318 -180 425 -45 107 -90 213 -100 235 -10 22 -66 155 -125 295 -59 140
-116 273 -126 295 -10 22 -63 148 -119 280 -56 132 -107 254 -115 270 -7 17
-59 138 -115 270 -276 648 -453 1064 -470 1100 -10 22 -57 132 -105 245 -48
113 -94 221 -102 240 -9 19 -21 49 -28 65 -68 160 -200 466 -210 490 -8 17
-116 269 -240 560 -125 292 -233 544 -240 560 -8 17 -81 188 -164 380 -270
632 -431 1010 -445 1040 -8 17 -62 143 -121 280 -58 138 -112 264 -120 280 -7
17 -41 95 -75 175 -34 80 -67 159 -75 175 -7 17 -25 59 -40 95 -15 36 -35 83
-45 105 -10 22 -70 164 -134 315 -64 151 -123 289 -131 305 -7 17 -84 197
-170 400 -87 204 -202 476 -257 605 -55 129 -115 271 -133 315 -19 44 -49 116
-68 160 -55 129 -275 648 -362 855 -49 116 -154 367 -312 740 -36 85 -72 171
-80 190 -8 19 -21 49 -28 65 -8 17 -47 111 -88 210 -41 99 -191 457 -332 795
-142 338 -268 640 -280 670 -37 91 -322 772 -341 815 -10 22 -18 42 -19 45 -2
7 -6 17 -191 459 -92 218 -242 578 -336 801 -93 223 -173 414 -178 425 -6 11
-70 163 -144 339 -109 259 -136 315 -144 300z"/>
</g>
</svg>
